<svg xmlns="http://www.w3.org/2000/svg" width="4854.309" height="3302.07" viewBox="0 0 4854.309 3302.07">
  <defs>
    <style>
      .cls-1 {
        fill-rule: evenodd;
      }
    </style>
  </defs>
  <path id="Forma_1" data-name="Forma 1" class="cls-1" d="M4408.44,2651.24c-4.22,1.09-4.65,1.59-7.48,3.75v1.87h-3.74v1.87h-3.74v1.87H4386v1.87h-82.31v1.87h-7.48c-17.52.4-43.03-2.42-50.5,7.48-6.47,8.58-3.74,30.54-3.74,44.89v551.81h157.12v1.87q4.68,0.93,9.35,1.87,2.805,3.735,5.61,7.48h1.87c0.63,2.49,1.25,4.99,1.88,7.48h1.87v16.84c0.01,15.68.58,32.44-3.75,43.02-3.49,1.83-7.71,6.18-11.22,7.48h-13.09v1.87h-3.74v1.87c-1.87.62-3.74,1.25-5.61,1.87-0.63,1.87-1.25,3.74-1.88,5.61h-1.87v3.74h-1.87v392.81c-137.33-1.53-224.49,47.49-276.83,130.94q-1.875,5.61-3.74,11.22h-1.87v3.74h-1.88q-1.86,5.61-3.74,11.23h-1.87v5.61h-1.87v3.74h-1.87v5.61h-1.87v3.74h-1.87q-1.875,9.36-3.74,18.71h-1.87v7.48h-1.87v7.48h-1.87v11.22h-1.87v13.1h-1.87V3393.84c0-12.38,2.26-35.3-5.61-39.28h-44.9c-2.13-2.13,0-.75-3.74-1.87-4.1-22.96-1.89-54.33-1.87-80.43,10.66-5.55,32.27-3.88,48.64-3.74,2.13-2.13,0-.75,3.74-1.87,0.62-1.87,1.24-3.75,1.87-5.62,5.19-5.61.08-28.72,0-37.41q-3.75-33.66-7.49-67.34h-1.87q-1.86-14.955-3.74-29.92h-1.87q-0.93-9.36-1.87-18.71h-1.87v-7.48h-1.87v-7.48h-1.87v-7.49h-1.87v-7.48h-1.87v-7.48h-1.87q-0.93-6.54-1.87-13.09h-1.87v-5.61h-1.87v-5.62h-1.87v-5.61h-1.87q-0.945-6.54-1.87-13.09h-1.87v-3.74h-1.87v-5.61h-1.88v-5.62h-1.87v-5.61h-1.87v-5.61h-1.87v-3.74h-1.87v-5.61h-1.87c-0.62-3.12-1.25-6.24-1.87-9.35h-1.87v-3.74h-1.87v-5.62h-1.87c-0.62-2.49-1.25-4.98-1.87-7.48h-1.87v-3.74h-1.87v-5.61h-1.87q-1.875-5.61-3.74-11.22h-1.87v-3.74h-1.87v-3.75h-1.87v-3.74h-1.88v-3.74h-1.87v-3.74h-1.87v-3.74h-1.87v-3.74h-1.87v-3.74h-1.87v-3.74c-1.24-.63-2.49-1.25-3.74-1.87q-1.875-5.61-3.74-11.23c-1.25-.62-2.49-1.24-3.74-1.87v-3.74h-1.87v-3.74c-1.25-.62-2.5-1.25-3.74-1.87-0.63-2.49-1.25-4.99-1.87-7.48-1.25-.63-2.5-1.25-3.74-1.87v-3.74c-1.25-.63-2.5-1.25-3.75-1.87v-3.75h-1.87q-0.93-2.8-1.87-5.61c-1.24-.62-2.49-1.24-3.74-1.87V2857c-1.24-.62-2.49-1.25-3.74-1.87v-3.74c-1.87-1.25-3.74-2.49-5.61-3.74v-3.74q-2.8-1.875-5.61-3.74v-3.74l-5.61-3.75v-3.74q-3.75-2.8-7.49-5.61v-3.74q-3.735-2.805-7.48-5.61v-3.74q-7.47-6.555-14.96-13.09v-3.75c-1.25-.62-2.5-1.24-3.74-1.87v-1.87q-11.22-10.275-22.45-20.57-3.735-4.68-7.48-9.36h-3.74q-5.61-6.54-11.22-13.09h-3.75q-2.8-3.735-5.61-7.48h-3.74q-2.8-3.735-5.61-7.48h-3.74q-1.875-2.8-3.74-5.61h-3.74q-1.875-2.82-3.74-5.62h-3.75c-0.62-1.24-1.24-2.49-1.87-3.74h-3.74q-1.86-2.8-3.74-5.61h-3.74c-0.62-1.25-1.25-2.49-1.87-3.74h-3.74c-0.62-1.25-1.25-2.49-1.87-3.74-2.49-.62-4.99-1.25-7.48-1.87-0.63-1.25-1.25-2.5-1.87-3.74-2.5-.63-4.99-1.25-7.49-1.87-0.62-1.25-1.24-2.5-1.87-3.74l-11.22-3.75c-0.62-1.24-1.25-2.49-1.87-3.74h-3.74v-1.87h-3.74v-1.87h-3.74v-1.87h-3.74v-1.87h-3.74v-1.87h-3.75v-1.87h-3.74v-1.87h-3.74v-1.87h-3.74v-1.87q-5.61-1.875-11.22-3.74v-1.87h-5.61v-1.87c-2.5-.63-4.99-1.25-7.49-1.87v-1.87h-5.61v-1.87h-3.74v-1.87q-5.61-.945-11.22-1.88v-1.87h-3.74v-1.87q-5.61-.93-11.23-1.87v-1.87h-5.61v-1.87h-5.61v-1.87h-5.61v-1.87h-5.61v-1.87h-7.48v-1.87h-5.62v-1.87q-6.54-.93-13.09-1.87v-1.87h-7.48v-1.87q-8.415-.945-16.84-1.87v-1.87h-9.35c-12.04-3.74-28.72-5.7-41.15-9.36q-14.025-.93-28.06-1.87v-1.87q-37.41-1.86-74.82-3.74c-13-.01-23.89-2.76-33.67,0h-18.7c-11.67.02-24.48,1.1-33.67,3.74l-48.64,5.61v1.88H3288v1.87h-9.35v1.87h-7.48v1.87h-7.49v1.87h-9.35v1.87q-10.29,1.86-20.57,3.74v1.87q-6.555.93-13.1,1.87v1.87h-5.61v1.87h-5.61v1.87h-5.61v1.87h-5.61v1.87q-8.415,1.875-16.84,3.74v1.87h-3.74v1.87q-5.61.945-11.22,1.88v1.87h-3.74v1.87h-5.61v1.87c-2.5.62-4.99,1.24-7.49,1.87v1.87h-5.61v1.87c-2.49.62-4.99,1.25-7.48,1.87v1.87c-3.12.62-6.24,1.25-9.35,1.87v1.87q-5.61,1.875-11.23,3.74v1.87h-3.74v1.87h-3.74v1.87h-3.74v1.87h-3.74v1.87h-3.74v1.87h-3.74v1.87h-3.74c-0.63,1.25-1.25,2.5-1.87,3.75q-5.61,1.86-11.23,3.74c-0.62,1.24-1.24,2.49-1.87,3.74q-5.61,1.86-11.22,3.74v1.87c-1.87.62-3.74,1.25-5.61,1.87-0.63,1.25-1.25,2.49-1.87,3.74-2.5.62-4.99,1.25-7.48,1.87v1.87q-2.82.945-5.62,1.87c-0.62,1.25-1.24,2.5-1.87,3.74h-3.74v1.87q-2.8.945-5.61,1.87c-0.62,1.25-1.25,2.5-1.87,3.75h-3.74q-1.875,2.8-3.74,5.61h-3.74q-1.875,2.8-3.74,5.61h-3.75c-0.62,1.25-1.24,2.49-1.87,3.74h-3.74q-2.805,3.735-5.61,7.48h-3.74q-2.8,3.75-5.61,7.48h-3.74q-3.75,4.68-7.48,9.36c-1.87.62-3.75,1.24-5.62,1.87q-6.54,7.47-13.09,14.96h-3.74q-4.68,5.61-9.35,11.22-9.36,8.43-18.71,16.84v3.74h-1.87c-1.25,1.87-2.49,3.74-3.74,5.61q-5.61,4.68-11.22,9.35v3.75q-5.61,4.665-11.23,9.35v3.74c-1.24.62-2.49,1.25-3.74,1.87q-0.93,2.8-1.87,5.61-3.735,2.8-7.48,5.61v3.74q-2.8,1.875-5.61,3.74v3.75q-2.8,1.86-5.61,3.74v3.74c-1.25.62-2.5,1.24-3.74,1.87v3.74c-1.87,1.25-3.74,2.49-5.62,3.74v3.74c-1.24.62-2.49,1.25-3.74,1.87q-0.93,2.805-1.87,5.61h-1.87c-0.62,2.5-1.24,4.99-1.87,7.49h-1.87c-0.62,1.87-1.25,3.74-1.87,5.61-1.25.62-2.49,1.24-3.74,1.87v3.74h-1.87v3.74c-1.25.62-2.49,1.25-3.74,1.87-0.62,2.49-1.25,4.99-1.87,7.48-1.25.63-2.5,1.25-3.74,1.87q-1.875,5.61-3.74,11.23c-1.25.62-2.5,1.24-3.75,1.87v3.74h-1.87v3.74h-1.87v3.74h-1.87v3.74h-1.87v3.74h-1.87v3.74h-1.87v3.74h-1.87v3.74h-1.87v3.75h-1.87q-1.875,5.61-3.74,11.22h-1.87c-0.62,3.12-1.25,6.23-1.87,9.35h-1.87q-0.945,3.75-1.87,7.48h-1.87v5.62h-1.87v3.74h-1.87v5.61h-1.87c-0.63,2.49-1.25,4.99-1.88,7.48h-1.87v5.61h-1.87v5.61h-1.87v3.74h-1.87q-0.93,5.61-1.87,11.23h-1.87q-0.93,5.61-1.87,11.22h-1.87v5.61h-1.87v5.61h-1.87v5.61h-1.87v5.62h-1.87v5.61h-1.87q-0.945,6.54-1.87,13.09h-1.87q-0.945,6.555-1.87,13.1h-1.87q-0.945,7.47-1.87,14.96h-1.88q-1.86,12.15-3.74,24.32h-1.87v7.48h-1.87v9.35h-1.87v9.35h-1.87v9.36h-1.87v11.22c-4.76,15.69-7.24,34-7.48,54.24,1.25,0.63,2.49,1.25,3.74,1.87,5.54,5.32,19.19,3.75,29.93,3.75h67.34c14.17,0,24.57-1.33,29.93,7.48,6.44,6.22,3.83,39.04,3.74,52.37q-0.945,8.415-1.87,16.84-3.75,2.8-7.49,5.61c-5.32,5.1-17.68,3.74-28.05,3.74h-63.6c-14.18,0-24.57-1.33-29.93,7.48-5.35,5.48-3.74,19.24-3.74,29.93v387.2c-5.29-1.07-8.92-4.11-13.09-5.61h-7.49v-1.87h-5.61v-1.87h-7.48v-1.88h-9.35v-1.87h-9.36v-1.87q-12.15-.93-24.31-1.87v-1.87q-47.7-1.86-95.4-3.74V3498.59c0-44.13,4.23-100.81-3.74-138.42-1.87-.62-3.74-1.25-5.61-1.87v-1.87h-3.74v-1.87H2444.4v-1.87c-2.5-.62-4.99-1.25-7.48-1.87-0.63-1.87-1.25-3.74-1.88-5.61h-1.87v-3.74h-1.87v-18.71c-0.01-15.63-.48-34.01,1.87-46.76a40.966,40.966,0,0,0,9.36-7.48c39.65,0.23,88.01,2.94,121.58-3.75,2.93-14.18.12-30.3-3.74-43.02q-0.93-11.22-1.87-22.44h-1.87v-9.36h-1.87v-9.35h-1.87v-9.35h-1.87v-7.48h-1.87v-9.36h-1.87v-7.48h-1.87v-7.48h-1.88v-7.48h-1.87v-7.48h-1.87V3117h-1.87q-0.93-6.54-1.87-13.09h-1.87q-1.86-9.345-3.74-18.71h-1.87v-5.61h-1.87v-5.61h-1.87v-5.61h-1.87q-0.93-5.61-1.87-11.22h-1.87v-3.74h-1.87q-0.945-5.61-1.87-11.23h-1.87v-3.74h-1.87v-5.61h-1.87c-0.63-3.12-1.25-6.23-1.87-9.35h-1.88v-3.74h-1.87v-5.61h-1.87c-0.62-2.5-1.24-4.99-1.87-7.49h-1.87v-5.61h-1.87q-1.86-5.61-3.74-11.22h-1.87v-3.74h-1.87v-5.61h-1.87q-1.875-5.61-3.74-11.23h-1.87v-3.74h-1.87c-0.63-2.49-1.25-4.99-1.87-7.48-1.25-.62-2.5-1.25-3.74-1.87v-3.74h-1.87v-3.74h-1.88v-3.74h-1.87v-3.74h-1.87v-3.75c-1.24-.62-2.49-1.24-3.74-1.87q-0.93-3.735-1.87-7.48c-1.24-.62-2.49-1.25-3.74-1.87-0.62-2.49-1.25-4.99-1.87-7.48-1.25-.62-2.49-1.25-3.74-1.87-0.62-2.5-1.25-4.99-1.87-7.48-1.25-.63-2.5-1.25-3.74-1.87v-3.75h-1.87q-0.945-2.805-1.87-5.61c-1.25-.62-2.5-1.24-3.74-1.87v-3.74h-1.87c-0.63-1.87-1.25-3.74-1.88-5.61-1.24-.62-2.49-1.25-3.74-1.87v-3.74q-2.805-1.875-5.61-3.74v-3.74q-2.8-1.875-5.61-3.74v-3.75q-2.8-1.86-5.61-3.74v-3.74q-2.8-1.86-5.61-3.74v-3.74c-1.25-.62-2.5-1.25-3.74-1.87q-1.875-2.8-3.74-5.61h-1.88v-3.74q-4.665-3.75-9.35-7.49v-3.74q-10.29-9.345-20.57-18.7-0.945-2.8-1.87-5.61c-1.25-.63-2.5-1.25-3.74-1.87q-4.68-5.61-9.36-11.23h-3.74q-9.345-10.275-18.7-20.57h-3.74q-4.68-5.61-9.36-11.23h-3.74q-2.8-3.735-5.61-7.48h-3.74q-2.8-3.735-5.61-7.48h-3.74q-1.875-2.8-3.74-5.61h-3.75c-0.62-1.25-1.24-2.5-1.87-3.74h-3.74q-1.86-2.8-3.74-5.61h-3.74c-0.62-1.25-1.25-2.5-1.87-3.74-1.87-.63-3.74-1.25-5.61-1.88v-1.87h-3.74c-0.63-1.24-1.25-2.49-1.87-3.74h-3.74c-0.63-1.24-1.25-2.49-1.87-3.74h-3.75c-0.62-1.24-1.24-2.49-1.87-3.74-2.49-.62-4.98-1.25-7.48-1.87-0.62-1.25-1.25-2.49-1.87-3.74-1.87-.62-3.74-1.25-5.61-1.87v-1.87q-5.61-1.875-11.22-3.74c-0.63-1.25-1.25-2.5-1.87-3.74h-3.74v-1.87h-3.75v-1.87h-3.74v-1.88h-3.74v-1.87c-2.49-.62-4.99-1.24-7.48-1.87-0.62-1.24-1.25-2.49-1.87-3.74q-8.415-2.8-16.84-5.61v-1.87h-3.74v-1.87q-5.61-1.875-11.22-3.74v-1.87h-5.61v-1.87c-2.49-.63-4.99-1.25-7.48-1.87v-1.87h-5.61v-1.87c-2.5-.63-4.99-1.25-7.49-1.87v-1.87q-5.61-.945-11.22-1.87v-1.88h-3.74v-1.87q-8.415-1.86-16.84-3.74v-1.87h-3.74v-1.87h-7.48v-1.87h-5.61v-1.87h-5.61v-1.87h-5.61v-1.87h-5.61v-1.87q-7.485-.93-14.97-1.87v-1.87h-5.61v-1.87h-7.48v-1.87h-7.48v-1.87q-8.43-.945-16.84-1.87v-1.87q-27.12-3.75-54.24-7.49c-22.89-6.53-53.13-5.6-82.31-5.61-13.34,0-30.84-1.07-41.15,1.87h-20.57q-12.165.945-24.32,1.87v1.87H1784.1v1.87h-13.09c-9.2,2.75-22.86,4.68-31.8,7.49h-9.35v1.87h-9.35v1.87h-9.36v1.87h-7.48v1.87h-7.48v1.87h-7.48q-36.48,12.15-72.95,24.32v1.87h-3.74v1.87h-5.62v1.87q-3.735.93-7.48,1.87v1.87h-3.74v1.87h-5.61v1.87q-5.61,1.875-11.22,3.74v1.87h-3.74v1.87h-3.75v1.87h-3.74v1.87h-3.74v1.87h-3.74v1.87h-3.74c-0.62,1.25-1.25,2.5-1.87,3.74l-11.22,3.75c-0.63,1.24-1.25,2.49-1.87,3.74-2.5.62-4.99,1.24-7.49,1.87-0.62,1.24-1.24,2.49-1.87,3.74-2.49.62-4.98,1.25-7.48,1.87v1.87c-1.87.62-3.74,1.25-5.61,1.87-0.62,1.25-1.25,2.49-1.87,3.74h-3.74v1.87c-1.87.62-3.74,1.25-5.61,1.87-0.63,1.25-1.25,2.5-1.87,3.74h-3.74l-3.75,5.61h-3.74c-0.62,1.25-1.24,2.5-1.87,3.75h-3.74c-0.62,1.24-1.25,2.49-1.87,3.74h-1.87c-0.62,1.24-1.25,2.49-1.87,3.74h-3.74q-2.805,3.735-5.61,7.48h-3.74l-7.49,9.35h-3.74q-7.47,8.415-14.96,16.84h-3.74q-1.875,2.805-3.74,5.61-7.485,6.54-14.97,13.09v3.74l-18.7,16.84v3.74q-4.68,3.735-9.35,7.48v3.74q-3.75,2.8-7.49,5.61v3.74l-5.61,3.75c-0.62,1.87-1.25,3.74-1.87,5.61-1.25.62-2.49,1.24-3.74,1.87v3.74c-1.87,1.25-3.74,2.49-5.61,3.74v3.74c-1.25.62-2.5,1.25-3.74,1.87q-0.945,2.8-1.87,5.61h-1.87v3.74c-1.25.63-2.5,1.25-3.74,1.87v3.75c-1.25.62-2.5,1.24-3.75,1.87v3.74c-1.24.62-2.49,1.24-3.74,1.87q-0.93,2.8-1.87,5.61h-1.87c-0.62,2.49-1.24,4.99-1.87,7.48-1.24.62-2.49,1.25-3.74,1.87-0.62,2.5-1.25,4.99-1.87,7.48h-1.87v3.74c-1.25.63-2.49,1.25-3.74,1.88v3.74h-1.87v3.74h-1.87v3.74h-1.87v3.74h-1.87v3.74c-1.25.62-2.5,1.25-3.74,1.87-0.63,2.49-1.25,4.99-1.87,7.48h-1.88q-1.86,5.61-3.74,11.23h-1.87v5.61h-1.87v3.74h-1.87q-1.86,5.61-3.74,11.22h-1.87c-0.62,3.12-1.25,6.24-1.87,9.35h-1.87v3.75h-1.87v5.61h-1.87v3.74h-1.87c-0.63,3.12-1.25,6.23-1.87,9.35h-1.87q-0.945,5.61-1.87,11.22h-1.87v3.74h-1.87q-1.875,8.43-3.75,16.84h-1.87v5.61h-1.87v5.61h-1.87v5.61h-1.87q-1.86,9.36-3.74,18.71h-1.87q-0.93,7.485-1.87,14.96h-1.87q-1.875,11.22-3.74,22.45h-1.87q-1.875,12.15-3.74,24.32h-1.87v11.22h-1.87v9.35h-1.87v11.23h-1.87v11.22h-1.88v13.09h-1.87v14.97h-1.87v18.7h-1.87v26.19h-1.87c-2.14,7.55.98,17.27,1.87,22.44h1.87v1.88c13.8,1.23,32.1,1.85,48.64,1.87a24.832,24.832,0,0,0,5.61,7.48v52.37c-0.01,9.07.75,17.95-3.74,22.45-8.85,9.64-33.72-.95-46.77,3.74v1.87c-1.87.62-3.74,1.25-5.61,1.87-4.89,54.03-1.87,116.76-1.87,173.96v312.38h-1.87c-9.05-15.32-29.76-23.97-46.76-31.8v-1.87c-2.49-.63-4.99-1.25-7.48-1.87v-1.87h-5.61c-37.2-16.36-84.91-24.32-138.42-24.32H981.651v1.87H959.205v1.87q-15.9.93-31.8,1.87V3521.04c0-51.06,2.523-107.34-1.87-155.26-4.864-2.65-9.53-9.16-14.964-11.22H899.348v-1.87c-7.7-3.04-10.888-2.64-13.093-11.22-9.451-9.85-1.306-48.03,0-59.86q4.675-3.735,9.352-7.48v-1.87q3.741-.945,7.483-1.87v-1.87h158.99V2707.36c0-18.86,1.81-35.25-13.09-39.28-6.39-6.14-25.29-3.74-37.41-3.74q-47.694-.945-95.4-1.87v-1.87h-5.611v-1.87H904.96c-0.623-1.25-1.247-2.5-1.87-3.74h-3.742c-1.246-1.87-2.494-3.75-3.741-5.62h-1.87v-3.74c-1.247-.62-2.494-1.24-3.741-1.87-0.624-2.49-1.247-4.99-1.871-7.48h-1.87v-3.74h-1.871c-5.46-13.8-1.87-38.96-1.87-56.12,0-42.09-.145-88.1,1.87-127.19,4.3-2.61,2.729-4.33,5.612-7.48q3.741-2.8,7.482-5.62v-1.87h3.741c0.623-1.24,1.247-2.49,1.871-3.74h3.741c0.623-1.24,1.247-2.49,1.87-3.74l16.835-5.61v-1.87h3.741v-1.87h5.611v-1.87h3.741v-1.87c3.118-.62,6.236-1.25,9.353-1.87v-1.87q5.611-.945,11.223-1.87v-1.87h3.741v-1.87h5.612v-1.87H972.3v-1.88h5.611v-1.87h3.741v-1.87h5.612v-1.87H991v-1.87q5.611-.93,11.226-1.87v-1.87h3.74v-1.87h5.61c59.86-26.63,125.22-48.57,185.18-74.82q5.61-.93,11.22-1.87v-1.87h3.75v-1.87h5.61v-1.87h3.74v-1.87c3.12-.63,6.23-1.25,9.35-1.87v-1.87h5.61v-1.87h3.74v-1.87q5.61-.945,11.23-1.87v-1.88h3.74v-1.87h5.61v-1.87h3.74v-1.87q4.68-.93,9.35-1.87v-1.87h5.61v-1.87h3.74v-1.87q5.625-.93,11.23-1.87v-1.87h3.74v-1.87h5.61v-1.87h3.74v-1.87h5.61v-1.87h3.74v-1.87q4.68-.945,9.36-1.87v-1.87q5.61-.945,11.22-1.87v-1.87h3.74v-1.88h5.61v-1.87h3.74v-1.87h5.62v-1.87h3.74v-1.87h5.61v-1.87h3.74v-1.87q5.61-.93,11.22-1.87v-1.87h3.74v-1.87h5.61v-1.87h3.75v-1.87c3.11-.62,6.23-1.25,9.35-1.87v-1.87h5.61v-1.87h3.74v-1.87q5.61-.945,11.22-1.87v-1.87h3.74v-1.87h5.62v-1.87h3.74v-1.88q4.665-.93,9.35-1.87v-1.87h5.61v-1.87h3.74v-1.87q5.61-.93,11.23-1.87v-1.87h3.74v-1.87h5.61v-1.87h3.74v-1.87h5.61v-1.87h3.74v-1.87c3.12-.62,6.24-1.25,9.35-1.87v-1.87q5.625-.945,11.23-1.87v-1.87h3.74v-1.87h5.61v-1.87h3.74v-1.87h5.61v-1.88h3.74v-1.87q5.61-.93,11.23-1.87V2178q4.665-.93,9.35-1.87v-1.87h3.74v-1.87h5.61v-1.87h3.74v-1.87h5.61v-1.87h3.75v-1.87q5.61-.93,11.22-1.87v-1.87h3.74v-1.87h5.61v-1.87h3.74v-1.87q4.68-.945,9.36-1.87v-1.87h5.61v-1.87h3.74v-1.88q5.61-.93,11.22-1.87v-1.87h3.74v-1.87h5.61v-1.87h3.74v-1.87h5.62v-1.87h3.74v-1.87c3.11-.62,6.23-1.25,9.35-1.87v-1.87q5.61-.93,11.22-1.87v-1.87h3.74v-1.87h5.62v-1.87h3.74v-1.87h5.61v-1.87h3.74v-1.87h5.61v-1.87h3.74v-1.87q5.61-.945,11.22-1.88c94.24-41.34,195.66-74.71,289.94-115.97q5.61-.93,11.22-1.87v-1.87c3.12-.62,6.23-1.25,9.35-1.87v-1.87h3.74v-1.87h5.61v-1.87h3.74v-1.87q5.625-.93,11.23-1.87v-1.87h3.74v-1.87h5.61v-1.87h3.74v-1.87h5.61v-1.87h3.74v-1.87q4.68-.945,9.36-1.87v-1.88q5.61-.93,11.22-1.87v-1.87h3.74v-1.87h5.61v-1.87h3.74v-1.87h5.61v-1.87h3.75v-1.87h5.61v-1.87h3.74v-1.87q5.61-.93,11.22-1.87v-1.87h3.74v-1.87h5.61v-1.87h3.75v-1.87q4.665-.945,9.35-1.87v-1.87h5.61v-1.87h3.74v-1.87q5.61-.945,11.22-1.88v-1.87h3.74v-1.87h5.62c62.92-27.96,131.47-51,194.53-78.56q5.61-.93,11.22-1.87v-1.87h3.74v-1.87h5.62v-1.87h3.74v-1.87c3.11-.62,6.23-1.25,9.35-1.87v-1.87h5.61v-1.87h3.74v-1.87q8.415-1.875,16.84-3.74v-1.87h5.61v-1.87h5.61v-1.88h5.61v-1.87h5.61v-1.87h5.61v-1.87h5.62v-1.87h5.61v-1.87q9.345-1.86,18.7-3.74v-1.87H2508v-1.87h5.61v-1.87h7.48v-1.87h5.61v-1.87h7.48v-1.87h7.48v-1.87h7.49v-1.87q8.415-.945,16.83-1.87v-1.87h9.35v-1.87q9.36-.945,18.71-1.88v-1.87q13.1-.93,26.19-1.87c6.98-1.93,48.63-4.56,57.98-1.87v1.87h16.84v1.87h13.09v1.87h9.35v1.88h9.36v1.87h9.35v1.87h9.35v1.87q11.22,1.86,22.45,3.74v1.87h7.48v1.87q10.29,1.875,20.58,3.74v1.87h5.61v1.87h5.61v1.87h7.48v1.87h5.61v1.87h5.61v1.87h5.61v1.87h5.62v1.87h5.61v1.87q6.54,0.945,13.09,1.88v1.87h3.74v1.87h5.61v1.87q8.43,1.86,16.84,3.74v1.87h3.74v1.87h5.61v1.87h3.74v1.87h5.61v1.87h3.75v1.87h5.61v1.87h3.74v1.87q5.61,0.945,11.22,1.87v1.87h3.74v1.87h5.61v1.87h3.74v1.87q4.68,0.945,9.36,1.87v1.88h5.61v1.87h3.74v1.87q5.61,0.93,11.22,1.87v1.87h3.74v1.87h5.62v1.87h3.74v1.87c3.11,0.62,6.23,1.25,9.35,1.87v1.87h5.61v1.87h3.74v1.87q5.61,0.93,11.22,1.87v1.87h3.75v1.87h5.61v1.87h3.74v1.87c3.12,0.63,6.23,1.25,9.35,1.87v1.87h5.61v1.88h3.74v1.87q5.61,0.93,11.23,1.87v1.87h3.74v1.87h5.61v1.87h3.74v1.87h5.61v1.87h3.74v1.87h5.61v1.87h3.75v1.87q5.61,0.93,11.22,1.87v1.87h3.74v1.87h5.61v1.87h3.74v1.87q4.68,0.945,9.35,1.87v1.87h5.62v1.87h3.74v1.88q5.61,0.93,11.22,1.87v1.87q4.68,0.93,9.35,1.87v1.87h3.74v1.87h5.62v1.87h3.74v1.87q5.61,0.93,11.22,1.87c51.99,22.81,108.85,42.7,160.86,65.47q5.625,0.93,11.23,1.87v1.87h3.74v1.87h5.61v1.87h3.74v1.87h5.61v1.87h3.74v1.87c3.12,0.62,6.24,1.25,9.36,1.87v1.87q5.61,0.945,11.22,1.87v1.87h3.74v1.87h5.61v1.87h3.74v1.87h5.61v1.88h3.75v1.87h5.61v1.87h3.74v1.87q5.61,0.93,11.22,1.87c91.14,39.99,189.38,72.32,280.58,112.23q5.61,0.93,11.22,1.87v1.87h3.74v1.87h5.62v1.87h3.74v1.87h5.61v1.87h3.74v1.87c3.12,0.63,6.23,1.25,9.35,1.87V2178q5.61,0.945,11.22,1.87v1.87h3.75v1.87h5.61v1.88h3.74v1.87h5.61v1.87h3.74v1.87h5.61v1.87h3.74v1.87q5.61,0.93,11.23,1.87c94.23,41.35,195.64,74.72,289.93,115.97q5.61,0.93,11.22,1.87v1.87h3.74v1.87h5.61v1.87h3.74v1.87q4.68,0.945,9.36,1.87v1.87q5.61,0.945,11.22,1.87v1.88h3.74v1.87h5.61v1.87h3.74v1.87h5.61V2337h3.75v1.87h5.61v1.87h3.74v1.87q5.61,0.93,11.22,1.87v1.87c3.12,0.62,6.24,1.25,9.35,1.87v1.87h3.74v1.87h5.62c42.81,19.01,90.01,35.32,132.8,54.25h5.61v1.87h3.75v1.87q5.61,0.93,11.22,1.87v1.87h3.74v1.87h5.61v1.87h3.74v1.87h5.61v1.87q5.61,1.875,11.23,3.74v1.87h3.74v1.87c2.49,0.63,4.99,1.25,7.48,1.87,1.25,1.87,2.49,3.74,3.74,5.61h3.74q2.805,3.75,5.61,7.49h1.87c2.16,3.13.07,4.22,3.75,7.48v179.57h-1.87v5.61h-1.88v3.74h-1.87v3.74h-1.87C4410.01,2646.6,4409.58,2647.04,4408.44,2651.24ZM2635.19,1895.55c-5.14,4.49-12.75,1.39-20.58,3.75v1.87h-9.35q-21.51,7.47-43.02,14.96V1918h-3.74v1.87h-3.74c-0.63,1.25-1.25,2.5-1.87,3.74q-5.61,1.875-11.23,3.74c-0.62,1.25-1.24,2.5-1.87,3.74h-3.74c-1.24,1.87-2.49,3.75-3.74,5.62h-3.74c-0.62,1.24-1.25,2.49-1.87,3.74h-3.74q-4.68,5.61-9.35,11.22h-3.74q-3.75,4.68-7.49,9.35c-1.24.63-2.49,1.25-3.74,1.87v3.74l-11.22,9.36v3.74c-1.87,1.25-3.74,2.49-5.61,3.74v3.74c-1.25.62-2.5,1.25-3.74,1.87v3.74c-1.25.63-2.5,1.25-3.74,1.87q-0.945,3.75-1.87,7.48c-1.25.63-2.5,1.25-3.75,1.87-0.62,2.5-1.24,4.99-1.87,7.49h-1.87c-0.62,2.49-1.24,4.99-1.87,7.48h-1.87q-7.485,23.385-14.96,46.76V2077c-7.06,24.24-3.33,57.48,3.74,78.56v7.48h1.87v7.48h1.87v5.61h1.87v5.61h1.87v3.75h1.87v5.61h1.87q1.875,5.61,3.74,11.22h1.87v3.74h1.87c0.63,2.49,1.25,4.99,1.87,7.48,1.25,0.63,2.5,1.25,3.75,1.87v3.74c1.24,0.63,2.49,1.25,3.74,1.88v3.74c1.24,0.62,2.49,1.24,3.74,1.87v3.74q2.8,1.86,5.61,3.74v3.74q3.735,2.8,7.48,5.61v3.74q7.485,6.555,14.97,13.1,1.86,2.8,3.74,5.61h3.74q2.8,3.735,5.61,7.48h3.74c1.25,1.87,2.49,3.74,3.74,5.61h3.74c0.63,1.25,1.25,2.5,1.87,3.74q2.8,0.945,5.61,1.87v1.87h3.75c0.62,1.25,1.24,2.5,1.87,3.74h3.74v1.87h3.74v1.88h3.74v1.87h3.74v1.87c2.49,0.62,4.99,1.24,7.48,1.87v1.87q4.68,0.93,9.35,1.87v1.87q8.43,1.875,16.84,3.74v1.87h7.48v1.87h9.35v1.87h9.36v1.87h13.09c5.9,1.67,28.84,4.31,37.41,1.87v-1.87h13.09v-1.87h11.23v-1.87h7.48v-1.87h7.48v-1.87h5.61v-1.87h5.61v-1.87h5.62v-1.87h3.74v-1.87h5.61v-1.87q5.61-1.875,11.22-3.74v-1.87h3.74v-1.88c2.5-.62,4.99-1.24,7.49-1.87,0.62-1.24,1.24-2.49,1.87-3.74q3.735-.93,7.48-1.87c0.62-1.24,1.24-2.49,1.87-3.74h3.74c1.25-1.87,2.49-3.74,3.74-5.61h3.74q2.8-3.735,5.61-7.48h3.74q3.75-4.68,7.49-9.35,7.47-6.555,14.96-13.1v-3.74q3.735-2.8,7.48-5.61v-3.74c1.25-.63,2.5-1.25,3.74-1.87v-3.74q2.8-1.875,5.61-3.74c0.63-2.5,1.25-4.99,1.88-7.49,1.24-.62,2.49-1.24,3.74-1.87,0.62-2.49,1.24-4.99,1.87-7.48h1.87v-3.74h1.87q1.86-5.61,3.74-11.22h1.87v-5.61h1.87v-3.75h1.87v-5.61h1.87v-5.61h1.87v-5.61h1.87v-7.48h1.87q0.945-9.36,1.87-18.71h1.87v-13.09c1.67-5.88,4.32-28.86,1.87-37.41h-1.87V2077h-1.87v-11.23h-1.87v-9.35h-1.87v-5.61h-1.87q-0.93-6.555-1.87-13.1h-1.87v-3.74h-1.87v-5.61h-1.87v-3.74h-1.87v-5.61h-1.87c-0.62-2.49-1.25-4.99-1.87-7.48h-1.87c-0.63-2.5-1.25-4.99-1.87-7.49-1.25-.62-2.5-1.24-3.74-1.87q-0.945-3.735-1.87-7.48c-1.25-.62-2.5-1.24-3.75-1.87v-3.74c-1.24-.62-2.49-1.25-3.74-1.87v-3.74c-1.87-1.25-3.74-2.49-5.61-3.74v-3.74q-4.68-3.75-9.35-7.48v-3.75q-6.54-5.61-13.09-11.22c-0.63-1.25-1.25-2.49-1.87-3.74h-3.75q-3.735-4.68-7.48-9.35h-3.74c-1.25-1.87-2.49-3.74-3.74-5.61h-3.74c-0.62-1.25-1.25-2.5-1.87-3.75H2768c-0.63-1.24-1.25-2.49-1.87-3.74-2.5-.62-4.99-1.24-7.49-1.87-0.62-1.24-1.24-2.49-1.87-3.74-2.49-.62-4.98-1.25-7.48-1.87V1918c-2.49-.62-4.99-1.25-7.48-1.87v-1.87h-5.61v-1.87h-3.74v-1.87q-5.61-.93-11.23-1.87C2695.48,1898.52,2671.99,1895.55,2635.19,1895.55Zm370.36,2055.71c7.79,2.11,10.09,8.21,14.97,13.09q11.22,10.29,22.44,20.57c4.4,4.78-1.01,4.92,7.49,7.49,1.88,7.21,5.48,5.87,7.48,13.09h3.74c1.88,7.22,5.48,5.88,7.48,13.09h3.74v3.75c6.3,4,7.05,9.05,11.22,14.96,1.88,1.25,3.75,2.49,5.62,3.74v3.74q2.8,1.875,5.61,3.74v3.74q2.8,1.875,5.61,3.74c0.62,2.5,1.25,4.99,1.87,7.49,1.25,0.62,2.49,1.24,3.74,1.87v3.74c1.25,0.62,2.5,1.25,3.74,1.87v3.74c1.25,0.62,2.5,1.25,3.74,1.87v3.74c1.25,0.62,2.5,1.25,3.74,1.87q0.945,3.75,1.87,7.48c1.25,0.63,2.5,1.25,3.75,1.87v3.75c1.24,0.62,2.49,1.24,3.74,1.87q0.93,3.735,1.87,7.48h1.87v3.74c1.24,0.62,2.49,1.25,3.74,1.87v3.74h1.87v3.74h1.87v3.74h1.87v3.74h1.87v3.74h1.87v3.75h1.87v3.74h1.87v3.74h1.87v3.74h1.87q1.875,5.61,3.74,11.22h1.88q0.93,4.68,1.87,9.35h1.87c0.62,2.5,1.24,4.99,1.87,7.49h1.87v5.61h1.87v3.74h1.87v5.61h1.87c0.62,2.49,1.25,4.99,1.87,7.48h1.87v7.48h1.87v3.75h1.87q0.93,5.61,1.87,11.22h1.87v5.61h1.87v3.74h1.87v7.48h1.87v5.62h1.87v5.61h1.87q0.945,6.54,1.88,13.09h1.87q7.47,35.535,14.96,71.08v13.09h1.87v16.84h1.87v18.7h1.87v35.54h1.87c3.07,10.75-1.03,33.12,0,39.28h-1.87v18.71c-0.03,10.65-1.25,23.36-3.74,31.8v14.96h-1.87v11.23h-1.87v11.22h-1.87v13.09h-1.87q-0.945,8.415-1.87,16.84h-1.87v9.35h-1.87v7.48h-1.87v7.48h-1.87v7.49q-11.235,33.66-22.45,67.33h-1.87v3.75h-1.87v5.61h-1.87v3.74h-1.87v5.61h-1.87q-1.875,5.61-3.74,11.22h-1.87v3.74h-1.88v5.62c-1.24.62-2.49,1.24-3.74,1.87v5.61h-1.87v3.74h-1.87v3.74h-1.87v3.74h-1.87c-0.62,2.49-1.25,4.99-1.87,7.48-1.25.63-2.49,1.25-3.74,1.87v5.62c-1.25.62-2.49,1.24-3.74,1.87-0.62,1.87-1.25,3.74-1.87,5.61h-1.87v5.61c-1.25.62-2.5,1.25-3.74,1.87q-0.945,2.8-1.87,5.61h-1.87v5.61c-1.87,1.25-3.75,2.5-5.62,3.74-0.62,2.5-1.24,4.99-1.87,7.49-1.24.62-2.49,1.24-3.74,1.87v3.74c-1.24.62-2.49,1.24-3.74,1.87v3.74h-1.87v3.74q-3.735,2.8-7.48,5.61c-0.62,2.49-1.25,4.99-1.87,7.48-1.25.63-2.5,1.25-3.74,1.87v3.74q-3.75,2.82-7.48,5.62v3.74q-3.75,2.805-7.49,5.61v3.74c-1.87,1.25-3.74,2.49-5.61,3.74v3.74q-4.68,3.75-9.35,7.48v3.75q-4.68,3.735-9.35,7.48v3.74c-1.25.62-2.5,1.25-3.74,1.87-4.24,4.47-11.34,10.43-13.1,16.83h-3.74c-1.25,2.5-2.49,4.99-3.74,7.49h-3.74c-0.62,1.87-1.25,3.74-1.87,5.61-5.17,1.35-4.19.52-5.61,5.61h-3.74c-4.8,8.38-12.82,13.1-20.58,18.7-0.62,1.25-1.25,2.5-1.87,3.74q-3.735,2.82-7.48,5.62v1.87h-3.74v1.87c-3.25,2.68-4.52,4.32-9.36,5.61v3.74h-3.74c-4,6.3-9.05,7.05-14.96,11.22q-1.875,2.805-3.74,5.61h-3.74c-0.63,1.25-1.25,2.5-1.87,3.75h-3.75c-0.62,1.24-1.24,2.49-1.87,3.74h-3.74c-0.62,1.24-1.24,2.49-1.87,3.74h-3.74c-1.25,1.87-2.49,3.74-3.74,5.61h-3.74v1.87h-3.74c-0.62,1.25-1.25,2.49-1.87,3.74-2.5.62-4.99,1.25-7.48,1.87q-1.875,2.805-3.74,5.61-5.625,1.875-11.23,3.74c-0.62,1.25-1.25,2.5-1.87,3.75-2.49.62-4.99,1.24-7.48,1.87v1.87h-3.74c-0.63,1.24-1.25,2.49-1.87,3.74h-3.74v1.87h-3.74v1.87h-3.75v1.87h-3.74v1.87h-3.74v1.87h-3.74v1.87h-3.74v1.87q-5.61,1.875-11.22,3.74v1.87q-4.68.945-9.36,1.87v1.87q-3.735.945-7.48,1.87v1.87h-5.61v1.88c-2.49.62-4.99,1.24-7.48,1.87v1.87q-5.61.93-11.22,1.87v1.87h-3.74v1.87q-8.43,1.86-16.84,3.74v1.87h-3.74v1.87q-6.54.93-13.09,1.87v1.87h-5.62v1.87h-5.61v1.87h-5.61v1.87q-7.485.945-14.96,1.87c-14.47,5.14-33.3,8.5-48.64,13.1h-13.09v1.87h-11.22v1.87h-14.97v1.87h-16.83v1.87h-24.32c-15.14,4.18-61.59,4.3-76.69,0h-24.32v-1.87h-16.83v-1.87h-11.22v-1.87q-13.1-.945-26.19-1.87v-1.87q-9.36-.945-18.71-1.87v-1.88h-9.35v-1.87q-7.485-.93-14.96-1.87v-1.87h-5.62v-1.87h-7.48v-1.87q-7.485-.93-14.96-1.87v-1.87h-5.61v-1.87h-3.74v-1.87h-5.62v-1.87q-9.345-1.875-18.7-3.74v-1.87q-4.68-.945-9.35-1.87v-1.87h-3.74v-1.87q-5.625-.945-11.23-1.87v-1.87h-3.74v-1.87h-5.61v-1.88q-5.61-1.86-11.22-3.74v-1.87h-3.74v-1.87h-5.62v-1.87h-3.74v-1.87h-3.74c-0.62-1.25-1.25-2.49-1.87-3.74-3.12-.62-6.23-1.25-9.35-1.87-0.62-1.25-1.25-2.49-1.87-3.74h-5.61v-1.87h-3.74c-0.63-1.25-1.25-2.5-1.88-3.74h-5.61c-0.62-1.25-1.24-2.5-1.87-3.74q-2.8-.945-5.61-1.87v-1.87h-5.61c-0.62-1.25-1.25-2.5-1.87-3.75q-2.8-.93-5.61-1.87v-1.87h-5.61q-1.875-2.805-3.74-5.61h-3.75c-0.62-1.25-1.24-2.49-1.87-3.74-2.49-.62-4.98-1.25-7.48-1.87-1.25-1.87-2.49-3.74-3.74-5.61h-5.61q-2.8-3.75-5.61-7.48-3.75-.945-7.48-1.87c-1.25-1.87-2.5-3.75-3.75-5.62h-3.74q-2.8-3.735-5.61-7.48-2.805-.93-5.61-1.87c-0.62-1.25-1.25-2.49-1.87-3.74h-3.74q-2.8-3.735-5.61-7.48h-3.74l-9.36-11.22h-3.74q-2.8-3.75-5.61-7.49c-5.12-3.72-7.43-2.12-9.35-9.35-6.64-1.69-7.24-5.38-11.23-9.35-6.86-6.84-25.62-20.61-28.05-29.93h-3.74v-3.74c-9.61-5.84-15.96-17.03-22.45-26.19-1.87-1.25-3.74-2.49-5.61-3.74v-3.74c-1.87-1.25-3.74-2.49-5.61-3.74v-3.74q-2.805-1.875-5.61-3.74v-3.74q-2.82-1.875-5.62-3.75v-3.74q-2.8-1.86-5.61-3.74v-3.74c-1.24-.62-2.49-1.25-3.74-1.87-0.62-1.87-1.25-3.74-1.87-5.61h-1.87v-3.74c-1.25-.63-2.49-1.25-3.74-1.87-0.62-2.5-1.25-4.99-1.87-7.48-1.25-.63-2.5-1.25-3.74-1.88v-3.74c-1.25-.62-2.5-1.24-3.74-1.87q-0.945-2.805-1.87-5.61h-1.87v-3.74h-1.88v-3.74c-1.24-.62-2.49-1.25-3.74-1.87v-3.74h-1.87v-3.74h-1.87v-3.74h-1.87v-3.74c-1.24-.63-2.49-1.25-3.74-1.88v-3.74h-1.87v-3.74h-1.87v-3.74h-1.87v-3.74h-1.87v-3.74h-1.87v-3.74h-1.87q-1.875-5.61-3.74-11.22h-1.87v-5.62h-1.87q-0.945-3.735-1.87-7.48h-1.88v-3.74h-1.87v-5.61h-1.87c-0.62-2.49-1.24-4.99-1.87-7.48h-1.87q-0.93-5.61-1.87-11.23h-1.87v-3.74h-1.87q-1.875-8.415-3.74-16.83h-1.87v-3.74h-1.87q-0.93-5.61-1.87-11.23h-1.87v-7.48h-1.87v-5.61h-1.87v-5.61h-1.87q-1.875-10.29-3.74-20.58h-1.87v-9.35H1930v-7.48h-1.87v-7.48h-1.87v-9.36h-1.87v-9.35h-1.87v-11.22h-1.87q-0.93-13.095-1.87-26.19c-7.48-26.39-5.6-65.86-5.61-99.14-0.02-54.96,9.79-117.61,26.19-162.73v-7.48h1.87v-5.62h1.87v-5.61h1.87v-5.61h1.87q0.93-6.54,1.87-13.09h1.87v-3.74h1.87q0.93-5.61,1.87-11.23h1.87v-3.74h1.87v-5.61h1.87c0.63-3.12,1.25-6.23,1.87-9.35h1.87v-3.74h1.87v-5.61h1.87q1.875-5.625,3.75-11.23h1.87v-3.74h1.87v-3.74h1.87v-5.61c1.24-.62,2.49-1.25,3.74-1.87,0.62-3.12,1.25-6.24,1.87-9.35,1.25-.63,2.49-1.25,3.74-1.87,0.62-3.12,1.25-6.24,1.87-9.36,1.25-.62,2.49-1.24,3.74-1.87q1.875-5.61,3.74-11.22c1.25-.62,2.5-1.25,3.74-1.87q1.875-5.61,3.74-11.22h1.88c0.62-1.87,1.24-3.75,1.87-5.62,1.24-.62,2.49-1.24,3.74-1.87q0.93-3.735,1.87-7.48c1.87-1.25,3.74-2.49,5.61-3.74v-5.61q2.8-1.875,5.61-3.74v-3.74c1.25-.63,2.49-1.25,3.74-1.87v-3.74l5.61-3.75q0.945-3.735,1.87-7.48,3.75-2.8,7.49-5.61v-3.74c1.87-1.25,3.74-2.49,5.61-3.74v-3.74q2.8-1.875,5.61-3.74v-3.74l9.35-7.49v-3.74c1.25-.62,2.5-1.25,3.74-1.87q2.8-3.735,5.61-7.48h1.87v-3.74h1.88c2.68-3.26,4.29-4.52,5.61-9.35h3.74c1.28-2.54,2.82-2.42,3.74-3.75v-3.74h1.87c2.54-2.77.92-2.53,5.61-3.74,1.28-5.47,2.08-6.12,7.48-7.48,1.36-5.17.52-4.18,5.61-5.61,1.84-6.31,2.27-3.58,5.62-7.48h1.87v-3.74h3.74c2.86-5.22,8.51-11.45,14.96-13.1v-3.74c7.22-1.88,5.88-5.48,13.1-7.48v-3.74h3.74q2.8-3.75,5.61-7.48h3.74c1.25-1.87,2.49-3.75,3.74-5.62h3.74q1.875-2.8,3.74-5.61h3.74q1.875-2.805,3.74-5.61h3.75c0.62-1.25,1.24-2.49,1.87-3.74h3.74q1.86-2.805,3.74-5.61c2.49-.62,4.99-1.25,7.48-1.87,1.25-1.87,2.49-3.74,3.74-5.61h3.74v-1.87h3.74c0.63-1.25,1.25-2.5,1.87-3.74,2.5-.63,4.99-1.25,7.49-1.88q1.86-2.8,3.74-5.61h3.74v-1.87h3.74c0.62-1.24,1.25-2.49,1.87-3.74h3.74v-1.87h3.74v-1.87h3.74v-1.87h3.74c0.63-1.25,1.25-2.49,1.87-3.74h3.74v-1.87h3.75v-1.87h3.74v-1.87h3.74v-1.87h3.74v-1.87h3.74v-1.87h3.74v-1.87l11.22-3.75v-1.87h5.62v-1.87h3.74v-1.87h3.74v-1.87h3.74v-1.87h5.61v-1.87h3.74v-1.87h5.61v-1.87h3.74v-1.87h5.62v-1.87h5.61v-1.87h3.74v-1.87q5.61-.945,11.22-1.87v-1.87h3.74v-1.87h7.48v-1.87h5.62v-1.87h5.61v-1.88h5.61v-1.87q6.54-.93,13.09-1.87v-1.87h7.48v-1.87h7.49V3796h7.48v-1.87q8.415-.93,16.83-1.87v-1.87q10.29-.93,20.58-1.87v-1.87h11.22v-1.87h13.1v-1.87h14.96v-1.87h18.71v-1.87h31.79v-1.87c8.53-2.44,42.56.14,48.64,1.87H2609q14.97,0.93,29.93,1.87v1.87q20.58,1.875,41.15,3.74v1.87h9.36v1.87h7.48v1.87h9.35v1.87q8.415,0.945,16.83,1.87v1.87h5.62v1.87h9.35c43.22,14.93,87.24,28.72,123.45,50.51q4.68,0.93,9.36,1.87c0.62,1.24,1.24,2.49,1.87,3.74q5.61,1.875,11.22,3.74c0.62,1.25,1.25,2.49,1.87,3.74q5.61,1.875,11.22,3.74c0.63,1.25,1.25,2.5,1.87,3.74,2.5,0.63,4.99,1.25,7.49,1.87v1.87q2.8,0.945,5.61,1.87c0.62,1.25,1.24,2.5,1.87,3.75,2.49,0.62,4.99,1.24,7.48,1.87,1.25,1.87,2.49,3.74,3.74,5.61,2.49,0.62,4.99,1.24,7.48,1.87q2.8,3.735,5.61,7.48h5.62q2.8,3.735,5.61,7.48h3.74c1.25,1.87,2.49,3.74,3.74,5.61h3.74q2.805,3.75,5.61,7.49,2.8,0.93,5.61,1.87c0.63,1.24,1.25,2.49,1.87,3.74h3.75q4.665,5.61,9.35,11.22h3.74q3.735,4.68,7.48,9.35h3.74v1.87c1.25,0.63,2.5,1.25,3.74,1.87v3.75ZM4163.4,3859.6h3.75c6.31-10.89,17.86-17.12,28.05-24.32q1.875-2.805,3.74-5.61c2.5-.62,4.99-1.25,7.49-1.87,0.62-1.25,1.24-2.49,1.87-3.74h3.74v-1.87h3.74v-1.87h3.74v-1.87h3.74c0.62-1.25,1.25-2.5,1.87-3.74h5.61v-1.87c2.5-.63,4.99-1.25,7.49-1.87v-1.87q4.665-.945,9.35-1.87v-1.88h7.48v-1.87h5.61v-1.87h7.48v-1.87h7.49v-1.87h9.35V3796h16.83c18.15-5.06,46.85-.85,61.73,3.74h9.35v1.87h5.61v1.87q6.555,0.945,13.1,1.87v1.88c3.12,0.62,6.23,1.24,9.35,1.87v1.87h3.74v1.87h5.61v1.87c2.5,0.62,4.99,1.24,7.49,1.87v1.87c2.49,0.62,4.98,1.25,7.48,1.87,0.62,1.25,1.24,2.49,1.87,3.74h3.74c0.62,1.25,1.25,2.49,1.87,3.74,2.49,0.62,4.99,1.25,7.48,1.87q1.875,2.8,3.74,5.61h3.74q1.875,2.8,3.74,5.61h3.75q4.665,5.625,9.35,11.23h3.74q3.735,5.61,7.48,11.22,5.61,4.68,11.22,9.35v3.74c1.87,1.25,3.75,2.5,5.62,3.75v3.74q2.8,1.86,5.61,3.74v3.74c1.24,0.62,2.49,1.25,3.74,1.87,0.62,2.49,1.25,4.99,1.87,7.48,1.25,0.62,2.49,1.25,3.74,1.87,0.62,2.5,1.25,4.99,1.87,7.48h1.87c0.62,2.5,1.25,4.99,1.87,7.49h1.87v5.61h1.87c0.63,2.49,1.25,4.99,1.87,7.48h1.87q3.75,15.9,7.49,31.8c7.99,24.72,7.62,67.03,0,91.65v9.36h-1.87q-0.945,6.54-1.88,13.09h-1.87v3.74h-1.87q-0.93,5.61-1.87,11.22h-1.87q-1.86,5.625-3.74,11.23h-1.87v3.74h-1.87q-1.875,5.61-3.74,11.22c-1.25.63-2.49,1.25-3.74,1.87v3.74c-1.25.63-2.5,1.25-3.74,1.87v3.74h-1.87q-0.945,2.82-1.87,5.62c-1.25.62-2.5,1.24-3.74,1.87v3.74q-3.75,2.805-7.49,5.61v3.74q-8.415,7.485-16.83,14.96-2.805,3.75-5.61,7.49h-3.74q-2.805,3.735-5.62,7.48h-3.74c-0.62,1.25-1.24,2.49-1.87,3.74h-3.74q-1.86,2.8-3.74,5.61h-3.74c-0.62,1.25-1.25,2.5-1.87,3.74q-5.61,1.875-11.22,3.74v1.87h-3.74v1.87h-3.75v1.87l-11.22,3.75v1.87q-5.61.93-11.22,1.87v1.87h-3.74v1.87h-7.49V4215h-5.61v1.87h-7.48v1.87h-9.35v1.87h-13.1v1.87c-8.78,2.46-44.19-.07-50.5-1.87h-13.09q-22.455-6.54-44.9-13.09v-1.87l-11.22-3.75v-1.87h-3.74v-1.87h-3.74v-1.87h-3.74v-1.87h-3.74c-0.63-1.24-1.25-2.49-1.87-3.74h-3.74c-0.63-1.25-1.25-2.49-1.87-3.74h-3.75v-1.87c-1.87-.62-3.74-1.25-5.61-1.87-0.62-1.25-1.24-2.49-1.87-3.74h-3.74q-2.8-3.75-5.61-7.48h-3.74q-6.555-7.485-13.09-14.97-3.75-2.805-7.49-5.61v-3.74q-3.735-2.805-7.48-5.61v-3.74q-2.805-1.875-5.61-3.74v-3.74l-5.61-3.75q-0.945-3.735-1.87-7.48c-1.25-.62-2.5-1.24-3.74-1.87-0.63-2.49-1.25-4.99-1.87-7.48h-1.87v-3.74h-1.88q-1.86-5.61-3.74-11.22h-1.87v-5.62h-1.87v-3.74h-1.87q-1.86-8.415-3.74-16.83h-1.87q-0.93-7.485-1.87-14.97c-10.72-33.23-5.57-84.23,5.61-112.23v-5.61h1.87c0.63-3.12,1.25-6.23,1.87-9.35h1.87v-3.74h1.87v-5.61h1.87c0.63-2.5,1.25-4.99,1.87-7.49h1.88q0.93-3.735,1.87-7.48h1.87q0.93-2.8,1.87-5.61c1.24-.62,2.49-1.25,3.74-1.87,0.62-2.49,1.24-4.99,1.87-7.48q2.8-1.875,5.61-3.74v-3.74l5.61-3.75v-3.74h1.87C4157.64,3868.41,4161.69,3865.73,4163.4,3859.6ZM1303.38,4471.26h-3.74c-4.99,8.36-12.73,13.04-20.58,18.7q-3.735,4.68-7.48,9.36h-3.74c-1.25,1.87-2.49,3.74-3.74,5.61-1.87.62-3.74,1.25-5.61,1.87-0.63,1.25-1.25,2.49-1.87,3.74h-3.74c-0.63,1.25-1.25,2.49-1.87,3.74-1.87.63-3.75,1.25-5.62,1.87v1.87h-3.74c-0.62,1.25-1.24,2.5-1.87,3.74q-2.8.945-5.61,1.87v1.87l-11.22,3.75c-0.63,1.24-1.25,2.49-1.87,3.74h-3.74v1.87h-3.74v1.87h-3.75v1.87h-3.74v1.87h-3.74c-0.62,1.25-1.24,2.49-1.87,3.74h-3.74v1.87h-3.74v1.87h-5.61v1.87q-3.75.945-7.48,1.87v1.87q-4.68.945-9.36,1.87v1.87q-5.61.945-11.22,1.87v1.87h-5.61v1.88h-5.61v1.87h-5.61v1.87h-5.62v1.87h-7.48v1.87h-7.48v1.87h-7.48v1.87h-9.35v1.87h-9.36v1.87q-16.83,1.875-33.67,3.74h-18.7v1.87q-28.05-.93-56.117-1.87v-1.87q-13.092-.93-26.187-1.87-27.12-6.54-54.245-13.09v-1.87H903.09v-1.88h-7.483v-1.87h-3.741v-1.87h-5.611v-1.87h-3.741v-1.87H876.9v-1.87q-3.741-.93-7.482-1.87v-1.87h-3.741v-1.87h-5.611v-1.87q-5.611-1.875-11.224-3.74v-1.87c-2.493-.62-4.988-1.25-7.482-1.87-0.623-1.25-1.247-2.5-1.87-3.74q-3.741-.945-7.482-1.87c-0.624-1.25-1.247-2.5-1.871-3.74l-11.223-3.75-3.741-5.61h-3.741v-1.87q-2.805-.93-5.611-1.87c-0.624-1.25-1.248-2.49-1.871-3.74h-3.741l-3.741-5.61h-3.741c-0.624-1.25-1.247-2.5-1.871-3.74h-3.741l-3.741-5.61q-2.805-1.875-5.611-3.74v-1.88h-3.741c-0.624-1.24-1.247-2.49-1.871-3.74-4.913-4.64-14.047-14.99-20.576-16.83v-3.74h-3.741q-0.935-2.805-1.87-5.61-7.482-6.555-14.964-13.1v-3.74l-7.482-5.61v-3.74c-1.247-.62-2.494-1.25-3.741-1.87v-1.87c-1.247-.63-2.5-1.25-3.741-1.87v-3.74c-1.247-.63-2.5-1.25-3.741-1.87v-3.74l-5.612-3.75v-3.74c-1.247-.62-2.494-1.24-3.741-1.87-0.623-2.49-1.247-4.99-1.871-7.48-1.87-1.25-3.741-2.49-5.611-3.74l-3.741-11.22c-1.247-.63-2.494-1.25-3.741-1.87v-3.75h-1.871v-3.74h-1.87v-3.74h-1.871v-3.74H680.5v-3.74h-1.871l-3.741-11.22h-1.87q-0.936-4.68-1.871-9.36h-1.87v-3.74H667.4q-0.935-5.61-1.87-11.22h-1.871v-3.74h-1.87q-7.482-26.19-14.965-52.37v-9.36h-1.87v-11.22h-1.871v-14.96h-1.87v-18.71c-4.687-16.77-2.375-57.94,1.87-72.95V4132.7h1.871q0.935-10.29,1.87-20.58H648.7v-7.48h1.87v-7.48h1.871v-7.49h1.87q0.936-6.54,1.871-13.09h1.87v-5.61h1.871v-5.61h1.871v-5.61h1.87V4056h1.871v-5.61h1.87v-3.74h1.871v-5.61h1.87l3.741-11.22h1.871v-3.74h1.87v-5.62H680.5q0.934-3.735,1.87-7.48h1.871v-3.74c1.247-.62,2.494-1.25,3.741-1.87l3.741-11.22h1.87l1.871-5.61c1.247-.63,2.494-1.25,3.741-1.87v-3.75c1.247-.62,2.494-1.24,3.741-1.87q0.935-3.735,1.87-7.48,2.807-1.86,5.612-3.74v-3.74c1.247-.62,2.494-1.25,3.741-1.87v-3.74c1.247-.62,2.494-1.25,3.741-1.87l1.871-5.61q2.805-1.875,5.611-3.74v-3.75l13.094-11.22v-3.74q5.61-4.68,11.223-9.35,9.351-10.29,18.705-20.58h3.741q3.741-4.68,7.482-9.35h3.741q2.806-3.735,5.612-7.48h3.741l3.741-5.61h3.741c1.247-1.87,2.494-3.75,3.741-5.62h3.741c0.623-1.24,1.247-2.49,1.871-3.74h3.741c0.623-1.24,1.247-2.49,1.87-3.74,2.494-.62,4.988-1.25,7.482-1.87,0.624-1.25,1.247-2.49,1.871-3.74,2.493-.62,4.988-1.25,7.482-1.87,0.623-1.25,1.247-2.49,1.87-3.74h3.741v-1.87h3.741v-1.87H845.1v-1.87h3.741c0.624-1.25,1.248-2.5,1.871-3.74h5.612c0.623-1.25,1.247-2.5,1.87-3.74h3.741v-1.88h5.612v-1.87q3.74-.93,7.482-1.87v-1.87h5.611v-1.87h3.741v-1.87H890v-1.87h3.741v-1.87l61.727-16.83q21.508-1.875,43.022-3.74c7.254-2.02,50.2-4.59,59.854-1.88q30.87,4.68,61.73,9.36,30.855,10.29,61.73,20.57v1.87c2.49,0.63,4.99,1.25,7.48,1.87v1.87h5.61v1.88q5.61,1.86,11.22,3.74v1.87c2.5,0.62,4.99,1.24,7.49,1.87,0.62,1.24,1.24,2.49,1.87,3.74q5.61,1.875,11.22,3.74v1.87c1.87,0.62,3.74,1.25,5.61,1.87,0.62,1.25,1.25,2.49,1.87,3.74h3.74c0.63,1.25,1.25,2.5,1.87,3.74,2.5,0.63,4.99,1.25,7.49,1.87q1.86,2.8,3.74,5.61h3.74c0.62,1.25,1.24,2.5,1.87,3.75h3.74c0.62,1.24,1.25,2.49,1.87,3.74q2.8,0.93,5.61,1.87c1.25,1.87,2.49,3.74,3.74,5.61h3.74l11.23,13.09h3.74q8.415,9.36,16.83,18.71,4.68,3.735,9.35,7.48v3.74q6.555,5.61,13.1,11.22c0.62,1.87,1.24,3.75,1.87,5.62q2.8,1.86,5.61,3.74v3.74c1.25,0.62,2.49,1.24,3.74,1.87v3.74c1.87,1.25,3.74,2.49,5.61,3.74v3.74c1.25,0.62,2.5,1.25,3.74,1.87v3.74c1.25,0.63,2.5,1.25,3.74,1.87v3.74c1.25,0.63,2.5,1.25,3.75,1.87v3.75c1.24,0.62,2.49,1.24,3.74,1.87q1.86,5.61,3.74,11.22c1.24,0.62,2.49,1.25,3.74,1.87v3.74h1.87v3.74h1.87v3.74h1.87v3.74h1.87v3.75h1.87v3.74h1.87q1.875,5.61,3.74,11.22h1.87v5.61h1.87v3.74h1.87v5.61h1.88V4056h1.87q0.93,5.625,1.87,11.23h1.87v5.61h1.87v5.61h1.87v5.61h1.87q1.875,11.22,3.74,22.45c12.74,38.33,16.22,115.46,3.74,157.12q-2.8,16.83-5.61,33.67h-1.87q-0.945,6.555-1.87,13.1h-1.87v5.61h-1.87v5.61h-1.87v5.61h-1.87v5.61h-1.87c-0.63,2.5-1.25,4.99-1.88,7.48h-1.87v5.61h-1.87v3.75h-1.87v5.61h-1.87q-1.86,5.61-3.74,11.22h-1.87v3.74h-1.87v3.74h-1.87v3.74h-1.87v3.74h-1.87v3.75h-1.87q-0.945,2.8-1.87,5.61c-1.25.62-2.5,1.24-3.74,1.87v3.74c-1.25.62-2.5,1.25-3.74,1.87v3.74c-1.87,1.25-3.75,2.49-5.62,3.74v5.61c-1.24.63-2.49,1.25-3.74,1.87v3.74c-1.24.63-2.49,1.25-3.74,1.88v3.74q-2.8,1.86-5.61,3.74v3.74c-1.25.62-2.49,1.25-3.74,1.87v3.74q-4.68,3.735-9.35,7.48v3.74h-1.87q-1.875,2.805-3.74,5.61C1314.46,4458.37,1305.9,4462.3,1303.38,4471.26Zm2686.07-510.65v3.74h3.74v3.74h3.74c1.25,1.87,2.49,3.74,3.74,5.61l18.7,16.84v3.74q5.625,4.665,11.23,9.35v3.74h1.87c1.25,1.87,2.49,3.74,3.74,5.61q2.8,1.875,5.61,3.74v3.74l5.61,3.75v3.74c1.25,0.62,2.5,1.24,3.74,1.87v3.74c1.87,1.25,3.74,2.49,5.61,3.74v3.74c1.88,1.25,3.75,2.49,5.62,3.74q0.93,3.75,1.87,7.48c1.24,0.63,2.49,1.25,3.74,1.87v3.75c1.24,0.62,2.49,1.24,3.74,1.87v3.74c1.25,0.62,2.49,1.24,3.74,1.87v5.61h1.87c0.62,1.87,1.25,3.74,1.87,5.61,1.25,0.62,2.5,1.25,3.74,1.87v5.61c1.25,0.63,2.5,1.25,3.74,1.87q1.875,5.61,3.74,11.23h1.87l3.75,11.22h1.87v5.61h1.87c0.62,2.49,1.24,4.99,1.87,7.48h1.87v5.61h1.87v3.75h1.87c0.62,3.11,1.25,6.23,1.87,9.35h1.87v5.61h1.87v3.74h1.87v7.48h1.87v5.61h1.87v5.62h1.87v5.61h1.87v5.61h1.87q0.945,8.415,1.87,16.83h1.87v7.49h1.88v7.48h1.87v11.22h1.87v11.22h1.87v13.1h1.87v16.83h1.87v37.41h1.87q-0.945,7.485-1.87,14.97c-0.19,17.35.06,33.44-3.74,46.76q-0.945,13.095-1.87,26.19h-1.87q-0.945,8.415-1.87,16.83h-1.88q-1.86,11.22-3.74,22.45h-1.87v7.48h-1.87v5.61h-1.87v5.61h-1.87v5.61h-1.87v5.62h-1.87q-0.93,5.61-1.87,11.22h-1.87c-0.62,3.12-1.25,6.23-1.87,9.35h-1.87v3.74h-1.87v5.61c-1.25.63-2.5,1.25-3.74,1.87v5.62h-1.87q-0.945,3.735-1.87,7.48h-1.87v5.61c-1.25.62-2.5,1.25-3.75,1.87v3.74h-1.87v3.74h-1.87v3.74h-1.87v3.74h-1.87v3.75c-1.24.62-2.49,1.24-3.74,1.87q-1.875,5.61-3.74,11.22h-1.87c-0.62,1.87-1.25,3.74-1.87,5.61-1.25.62-2.5,1.25-3.74,1.87q-1.875,5.61-3.74,11.22l-5.61,3.75v3.74c-1.25.62-2.5,1.24-3.75,1.87v3.74c-1.24.62-2.49,1.25-3.74,1.87q-0.93,2.805-1.87,5.61c-1.87,1.25-3.74,2.49-5.61,3.74v3.74q-3.735,2.805-7.48,5.61v3.75c-3.49,4.84-7.06,3.11-9.35,11.22h-3.74c-2.86,10.08-13.94,15.8-20.58,22.44q-9.345,10.29-18.71,20.58h-3.74q-4.665,5.61-9.35,11.22H3967c-1.25,1.87-2.49,3.74-3.74,5.61h-3.74q-1.875,2.82-3.74,5.62h-3.74l-3.75,5.61h-3.74c-0.62,1.24-1.24,2.49-1.87,3.74h-3.74q-1.86,2.805-3.74,5.61c-2.49.62-4.99,1.25-7.48,1.87-0.62,1.25-1.25,2.5-1.87,3.74q-2.8.945-5.61,1.87v1.87q-5.61,1.875-11.23,3.74c-0.62,1.25-1.24,2.5-1.87,3.75h-3.74v1.87h-3.74v1.87h-3.74v1.87h-3.74v1.87h-3.74v1.87h-3.74c-0.63,1.24-1.25,2.49-1.87,3.74h-5.61v1.87h-3.75v1.87q-5.61,1.875-11.22,3.74v1.87h-5.61v1.87h-3.74v1.87h-5.61V4735h-3.74v1.87q-5.61.945-11.23,1.87v1.87h-5.61v1.88h-5.61v1.87h-5.61v1.87h-7.48v1.87h-5.62v1.87h-7.48v1.87h-7.48v1.87h-7.48v1.87q-9.36.93-18.71,1.87v1.87h-11.22v1.87h-13.09v1.87h-16.84v1.87h-29.93c-3.75.62-12.27,3.69-18.7,1.87v-1.87h-33.67l-33.67-5.61H3592.9v-1.87q-8.415-.93-16.84-1.87v-1.87q-11.22-1.875-22.44-3.74v-1.87h-7.49v-1.87h-5.61v-1.87h-5.61v-1.87h-5.61v-1.88h-5.61v-1.87q-5.61-.93-11.23-1.87V4735h-3.74v-1.87h-5.61v-1.87h-3.74v-1.87h-5.61c-0.62-1.25-1.25-2.49-1.87-3.74h-5.61v-1.87c-2.5-.62-4.99-1.25-7.49-1.87v-1.87h-5.61c-0.62-1.25-1.24-2.5-1.87-3.74h-3.74v-1.87h-3.74v-1.87h-3.74v-1.87h-3.74v-1.87h-3.74c-0.63-1.25-1.25-2.5-1.87-3.75q-5.61-1.86-11.23-3.74c-0.62-1.24-1.24-2.49-1.87-3.74h-3.74c-0.62-1.24-1.25-2.49-1.87-3.74h-3.74c-0.62-1.25-1.25-2.49-1.87-3.74-2.49-.62-4.99-1.25-7.48-1.87-0.63-1.25-1.25-2.49-1.87-3.74h-3.74q-2.8-3.735-5.62-7.48-3.735-.945-7.48-1.87-1.86-2.805-3.74-5.62h-3.74q-3.735-4.665-7.48-9.35h-3.74q-3.75-4.68-7.48-9.35h-1.88c-0.62-1.25-1.24-2.49-1.87-3.74h-3.74q-5.61-6.555-11.22-13.1c-6.15-6.15-18.15-13.25-20.58-22.44h-3.74c-1.88-7.22-5.48-5.88-7.48-13.09h-3.74v-3.75c-6.3-3.97-7.06-9.07-11.22-14.96-1.87-1.25-3.74-2.49-5.61-3.74v-3.74h-1.87c-0.63-1.87-1.25-3.74-1.88-5.61q-2.8-1.875-5.61-3.74c-0.62-2.5-1.24-4.99-1.87-7.49-1.24-.62-2.49-1.24-3.74-1.87v-3.74c-1.25-.62-2.49-1.25-3.74-1.87v-3.74c-1.25-.62-2.49-1.25-3.74-1.87v-5.61h-1.87c-0.62-1.87-1.25-3.74-1.87-5.61-1.25-.63-2.5-1.25-3.74-1.87v-5.62c-1.25-.62-2.5-1.24-3.74-1.87q-0.945-3.735-1.87-7.48h-1.87v-3.74h-1.88q-1.86-5.61-3.74-11.22h-1.87v-5.61h-1.87c-0.62-2.5-1.24-4.99-1.87-7.49h-1.87c-0.62-3.11-1.25-6.23-1.87-9.35h-1.87v-5.61h-1.87v-3.74h-1.87v-5.61h-1.87v-3.74h-1.87v-7.49h-1.87v-5.61h-1.87v-5.61h-1.87v-5.61h-1.87v-7.48h-1.87v-7.48h-1.87v-7.49h-1.88v-7.48h-1.87v-9.35h-1.87v-9.35h-1.87v-11.23h-1.87v-14.96c-4.62-16.48-3.73-38.79-3.74-59.86-0.02-51.89,7.56-99.13,22.45-136.55v-5.61h1.87v-5.61h1.87v-5.61h1.87v-5.61h1.87v-3.74h1.87v-5.61h1.87v-3.75h1.87v-5.61h1.87q1.875-5.61,3.74-11.22h1.87v-3.74h1.87q0.945-4.68,1.87-9.35c1.25-.63,2.5-1.25,3.75-1.87q0.93-4.68,1.87-9.36c1.24-.62,2.49-1.24,3.74-1.87,0.62-2.49,1.24-4.99,1.87-7.48,1.24-.62,2.49-1.25,3.74-1.87v-5.61c1.25-.63,2.49-1.25,3.74-1.87v-3.74c1.25-.63,2.49-1.25,3.74-1.87v-3.74c1.25-.63,2.5-1.25,3.74-1.88q0.945-3.735,1.87-7.48c1.25-.62,2.5-1.24,3.74-1.87v-3.74c1.87-1.25,3.74-2.49,5.62-3.74v-3.74c1.24-.62,2.49-1.25,3.74-1.87v-3.74q2.8-1.875,5.61-3.74v-3.74c1.24-.63,2.49-1.25,3.74-1.88v-1.87c1.25-.62,2.49-1.24,3.74-1.87v-3.74h1.87c2.7-3.27,4.26-4.52,5.61-9.35h3.74v-3.74q7.485-6.555,14.97-13.09v-3.75q2.8-1.86,5.61-3.74v-1.87h3.74v-3.74h3.74c1.35-5.17.52-4.18,5.61-5.61v-3.74h3.74l9.36-11.22h3.74q4.665-5.61,9.35-11.23h3.74c1.25-1.87,2.49-3.74,3.74-5.61,1.87-.62,3.74-1.25,5.61-1.87,0.63-1.25,1.25-2.49,1.87-3.74h3.74c0.63-1.25,1.25-2.49,1.88-3.74h3.74q1.86-2.8,3.74-5.61h3.74c0.62-1.25,1.25-2.5,1.87-3.74,2.49-.63,4.99-1.25,7.48-1.87,0.62-1.25,1.25-2.5,1.87-3.75q2.8-.93,5.61-1.87v-1.87h3.74v-1.87h3.75v-1.87h3.74c0.62-1.24,1.24-2.49,1.87-3.74q5.61-1.875,11.22-3.74c0.62-1.25,1.25-2.49,1.87-3.74h5.61v-1.87h3.74c0.63-1.25,1.25-2.5,1.87-3.74h5.62v-1.87h3.74v-1.87q5.61-1.875,11.22-3.74v-1.87h5.61v-1.88h3.74v-1.87q5.61-.93,11.22-1.87v-1.87h3.75v-1.87h5.61v-1.87q6.54-.93,13.09-1.87v-1.87h3.74v-1.87q33.675-7.485,67.34-14.96h14.97c16.48-4.61,38.77-3.74,59.85-3.74,50.94-.02,97.89,7.84,134.68,22.44h5.61v1.87h5.61v1.87h5.61v1.87h5.62v1.87h3.74v1.87q5.61,0.945,11.22,1.87v1.88q5.61,1.86,11.22,3.74v1.87h3.74v1.87h5.62v1.87h3.74v1.87h3.74c0.62,1.25,1.24,2.49,1.87,3.74,3.11,0.62,6.23,1.25,9.35,1.87,0.62,1.25,1.25,2.49,1.87,3.74h3.74v1.87h3.74v1.87h3.74v1.87h3.74c0.63,1.25,1.25,2.5,1.88,3.74h3.74c0.62,1.25,1.24,2.5,1.87,3.74,2.49,0.63,4.99,1.25,7.48,1.88v1.87q2.805,0.93,5.61,1.87c0.62,1.24,1.25,2.49,1.87,3.74h3.74c0.63,1.24,1.25,2.49,1.87,3.74h3.74q1.875,2.8,3.74,5.61h3.75c0.62,1.25,1.24,2.49,1.87,3.74h3.74c0.62,1.25,1.24,2.49,1.87,3.74h1.87c0.62,1.25,1.25,2.5,1.87,3.74H3967q2.8,3.75,5.61,7.48h3.74v1.88C3980.64,3954.85,3983.32,3958.88,3989.45,3960.61ZM1670,3876.43c21.72-.24,47.3-1.24,63.6,3.75h9.35c45.1,14.46,81.78,34.61,106.62,69.2q3.75,2.82,7.48,5.62v3.74c1.25,0.62,2.5,1.24,3.75,1.87q0.93,2.8,1.87,5.61h1.87v3.74c1.24,0.62,2.49,1.25,3.74,1.87v3.74h1.87v3.74h1.87v3.74h1.87v3.75h1.87v3.74h1.87q1.875,5.61,3.74,11.22h1.87q2.8,12.15,5.61,24.32c5.29,15.88,11.49,48.67,5.61,69.21v13.09h-1.87v11.22h-1.87v7.48h-1.87v5.62h-1.87q-0.93,6.54-1.87,13.09h-1.87v3.74h-1.87v5.61h-1.87q-1.875,5.61-3.74,11.23h-1.87v3.74h-1.87c-0.62,2.49-1.25,4.98-1.87,7.48-1.25.62-2.5,1.25-3.74,1.87v3.74c-1.25.62-2.5,1.25-3.74,1.87v3.74c-1.25.62-2.5,1.25-3.75,1.87v3.74q-2.805,1.875-5.61,3.74v3.74q-3.735,2.82-7.48,5.62v3.74q-4.68,3.735-9.35,7.48c-0.62,1.25-1.25,2.49-1.87,3.74h-3.74l-9.36,11.22h-3.74c-1.24,1.87-2.49,3.75-3.74,5.62h-3.74c-0.62,1.24-1.25,2.49-1.87,3.74q-2.805.93-5.61,1.87v1.87c-2.49.62-4.99,1.24-7.48,1.87-0.63,1.24-1.25,2.49-1.87,3.74-2.5.62-4.99,1.25-7.49,1.87v1.87c-2.49.62-4.98,1.25-7.48,1.87v1.87h-5.61v1.87h-3.74v1.87h-5.61v1.87h-5.61v1.87h-5.61v1.87h-7.49v1.87h-7.48v1.87h-11.22v1.88h-16.84v1.87c-13.16,3.66-45.55-2.93-54.24-5.62h-9.35v-1.87h-5.62v-1.87q-6.54-.93-13.09-1.87v-1.87h-3.74v-1.87h-5.61v-1.87q-5.61-1.875-11.23-3.74v-1.87h-3.74v-1.87c-2.49-.62-4.98-1.25-7.48-1.87-0.62-1.25-1.25-2.5-1.87-3.74-2.49-.63-4.99-1.25-7.48-1.87-0.62-1.25-1.25-2.5-1.87-3.74h-3.74c-0.63-1.25-1.25-2.5-1.87-3.75h-3.74q-3.75-4.665-7.49-9.35h-3.74q-6.54-7.485-13.09-14.96-2.8-1.875-5.61-3.74v-3.74q-4.68-3.75-9.35-7.49v-3.74c-1.25-.62-2.5-1.24-3.75-1.87q-0.93-2.8-1.87-5.61h-1.87v-3.74c-1.24-.62-2.49-1.25-3.74-1.87-0.62-2.49-1.25-4.99-1.87-7.48-1.25-.63-2.49-1.25-3.74-1.87v-3.74h-1.87c-0.62-2.5-1.25-4.99-1.87-7.49h-1.87v-5.61h-1.87v-3.74h-1.87c-0.63-3.12-1.25-6.23-1.87-9.35h-1.87v-5.61h-1.87v-7.49c-5.78-17.23-7.49-32.11-7.49-56.11v-22.45h1.87v-11.22h1.88v-9.35h1.87v-7.48h1.87v-5.62h1.87v-5.61h1.87v-5.61h1.87v-5.61h1.87q1.875-5.61,3.74-11.22h1.87v-3.75h1.87v-3.74h1.87v-3.74h1.87v-3.74c1.25-.62,2.5-1.25,3.74-1.87v-3.74h1.87v-3.74c1.25-.62,2.5-1.25,3.74-1.87v-3.74c1.87-1.25,3.75-2.5,5.62-3.74v-3.74l11.22-9.36v-3.74c1.25-.62,2.49-1.25,3.74-1.87q2.8-3.735,5.61-7.48h3.74q4.68-5.61,9.35-11.22h3.75c1.24-1.87,2.49-3.75,3.74-5.62h3.74c0.62-1.24,1.25-2.49,1.87-3.74q2.8-.93,5.61-1.87v-1.87c2.49-.62,4.99-1.24,7.48-1.87v-1.87h3.74v-1.87h3.74v-1.87h3.75v-1.87h3.74v-1.87h3.74v-1.87q20.565-6.555,41.15-13.09H1670v-1.88ZM201.645,4314.14v-3.74c-5.167-1.36-4.185-.53-5.612-5.62h-3.741v-3.74h-3.741v-3.74c-8.355-4.81-11.483-12.65-16.835-20.57-1.246-.63-2.494-1.25-3.741-1.87v-3.75c-1.246-.62-2.494-1.24-3.741-1.87v-3.74c-1.246-.62-2.494-1.24-3.741-1.87-0.623-2.49-1.247-4.99-1.87-7.48-1.247-.62-2.494-1.25-3.741-1.87-0.624-2.49-1.247-4.99-1.871-7.48h-1.87q-1.87-5.61-3.741-11.23h-1.871q-0.934-4.665-1.87-9.35h-1.871v-3.74h-1.87v-5.61h-1.871v-5.61h-1.87v-5.61h-1.871v-7.49h-1.87v-7.48h-1.871v-7.48H128.7q-0.936-13.095-1.871-26.19h-1.87c-2.708-9.7-.118-37.85,1.87-44.89v-16.83H128.7q0.935-9.36,1.87-18.71h1.871v-7.48h1.87v-5.61h1.871v-5.61h1.87v-5.62h1.871v-5.61h1.87v-3.74h1.871v-5.61h1.87l3.741-11.22h1.871v-3.74h1.87q1.871-5.625,3.741-11.23c1.247-.62,2.494-1.25,3.741-1.87,0.624-2.49,1.247-4.99,1.871-7.48,1.247-.62,2.494-1.25,3.741-1.87v-3.74c1.247-.63,2.494-1.25,3.741-1.87v-3.74q2.805-1.875,5.612-3.74v-3.75l7.482-5.61v-3.74q5.61-4.68,11.223-9.35c4.863-4.87,7.184-11.02,14.964-13.09v-3.75h3.741c4.186-7.12,10.164-8.59,16.835-13.09,0.623-1.25,1.247-2.49,1.87-3.74h3.741c0.624-1.25,1.247-2.49,1.871-3.74,2.493-.62,4.988-1.25,7.482-1.87,0.623-1.25,1.247-2.5,1.87-3.74q5.611-1.875,11.223-3.74v-1.87H261.5v-1.87l11.224-3.75v-1.87h5.611v-1.87h3.741v-1.87q8.416-1.86,16.835-3.74v-1.87h7.482v-1.87h7.482v-1.87h9.353v-1.87h11.223c8.209-2.37,42.285-7.11,54.245-3.74v1.87q14.026,0.93,28.058,1.87,24.313,7.485,48.633,14.96v1.87l11.223,3.75v1.87h3.741v1.87q5.612,1.86,11.223,3.74c0.624,1.24,1.247,2.49,1.871,3.74,2.494,0.62,4.988,1.25,7.482,1.87,0.623,1.25,1.247,2.49,1.87,3.74h3.741c0.624,1.25,1.248,2.49,1.871,3.74h3.741c0.623,1.25,1.247,2.49,1.871,3.74q2.8,0.945,5.611,1.87l3.741,5.61h3.741l13.094,14.97q8.417,7.485,16.834,14.96v3.74q2.807,1.875,5.612,3.74v3.75q2.805,1.86,5.612,3.74l1.87,5.61c1.247,0.62,2.494,1.24,3.741,1.87,0.624,2.49,1.247,4.99,1.871,7.48,1.247,0.62,2.494,1.25,3.741,1.87v3.74h1.87v3.74h1.871v3.74h1.87v3.75h1.871v3.74h1.87v3.74h1.871l3.741,11.22h1.87q0.936,5.61,1.871,11.22c9.206,21.6,14.956,47.61,14.964,78.57v28.05h-1.87v14.97h-1.871v9.35h-1.871v9.35h-1.87v7.48h-1.871v5.62h-1.87v5.61h-1.871v5.61H598.2v5.61h-1.871v3.74h-1.87v5.61h-1.871q-1.87,5.61-3.741,11.23h-1.87v3.74H585.1l-3.741,11.22c-1.247.62-2.494,1.25-3.741,1.87v3.74c-1.247.63-2.494,1.25-3.741,1.87v3.74c-1.247.63-2.494,1.25-3.741,1.87v3.75c-1.247.62-2.494,1.24-3.741,1.87v3.74c-1.247.62-2.494,1.24-3.741,1.87v3.74q-5.611,4.68-11.223,9.35v3.74q-6.546,5.61-13.094,11.23l-3.741,5.61h-3.741q-3.741,4.665-7.482,9.35h-3.741q-2.805,3.735-5.611,7.48H510.28c-0.623,1.25-1.247,2.5-1.87,3.74h-3.741c-0.624,1.25-1.247,2.5-1.871,3.74q-3.74.945-7.482,1.87c-0.623,1.25-1.247,2.5-1.87,3.74h-3.741v1.88h-3.741v1.87h-3.741v1.87h-3.741v1.87h-3.741v1.87q-5.611,1.86-11.224,3.74v1.87q-5.61.93-11.223,1.87v1.87h-3.741v1.87h-7.482c-31.493,11.17-86.143,17.18-123.454,5.61h-9.353v-1.87h-5.611v-1.87h-5.612v-1.87h-7.482v-1.87h-3.741v-1.87q-5.61-.93-11.223-1.87v-1.87q-5.612-1.875-11.223-3.74v-1.87h-3.741v-1.87H255.89v-1.87l-11.223-3.75c-0.624-1.24-1.247-2.49-1.871-3.74h-3.741v-1.87q-2.805-.93-5.611-1.87c-0.624-1.24-1.247-2.49-1.871-3.74h-3.741c-0.623-1.25-1.247-2.49-1.87-3.74h-3.741q-2.807-3.735-5.612-7.48h-3.741C208.03,4320.01,209.747,4316.4,201.645,4314.14ZM4786.29,4108.38c16.68-.2,44.78-2.24,57.98,1.87v1.87h7.49v1.87h7.48v1.87h5.61v1.87h5.61v1.87q5.61,1.875,11.22,3.74v1.87h3.75v1.87h3.74v1.87c2.49,0.63,4.98,1.25,7.48,1.88,0.62,1.24,1.25,2.49,1.87,3.74h3.74v1.87q2.805,0.93,5.61,1.87c0.62,1.24,1.25,2.49,1.87,3.74h3.74q3.75,4.68,7.48,9.35h3.75q2.8,3.735,5.61,7.48h1.87v3.74l11.22,9.36v3.74c1.25,0.62,2.5,1.24,3.74,1.87q0.945,2.805,1.87,5.61h1.87v3.74c1.25,0.62,2.5,1.25,3.74,1.87q0.945,3.75,1.87,7.48c1.25,0.63,2.5,1.25,3.75,1.87v5.62h1.87v3.74h1.87q0.93,3.735,1.87,7.48h1.87q1.86,9.345,3.74,18.7h1.87q0.93,9.36,1.87,18.71c1.7,5.95,4.31,40.27,1.87,48.63h-1.87v9.36h-1.87v9.35h-1.87v5.61h-1.87v5.61h-1.87v5.61h-1.87v3.74h-1.87v5.61h-1.87c-0.63,2.5-1.25,4.99-1.87,7.49h-1.87c-0.63,2.49-1.25,4.99-1.88,7.48-1.24.62-2.49,1.25-3.74,1.87-0.62,2.49-1.24,4.99-1.87,7.48q-2.8,1.875-5.61,3.74v3.74q-2.8,1.875-5.61,3.74v3.75q-5.61,4.665-11.22,9.35l-9.36,11.22h-3.74q-2.805,3.75-5.61,7.48H4906c-0.62,1.25-1.25,2.5-1.87,3.74h-3.74c-0.62,1.25-1.25,2.5-1.87,3.75q-3.75.93-7.48,1.87v1.87h-3.74v1.87h-3.75v1.87q-5.61,1.86-11.22,3.74v1.87q-16.83,4.68-33.67,9.35H4823.7v1.87h-28.06v-1.87h-14.96v-1.87h-9.36v-1.87h-7.48v-1.87h-5.61v-1.87h-5.61v-1.87h-5.61v-1.87h-3.74v-1.87h-5.62v-1.87q-3.735-.945-7.48-1.87v-1.87h-3.74c-0.62-1.25-1.25-2.5-1.87-3.74-2.49-.63-4.99-1.25-7.48-1.87-0.63-1.25-1.25-2.5-1.87-3.75h-3.74q-1.875-2.8-3.74-5.61h-3.75q-3.735-4.665-7.48-9.35h-3.74v-1.87c-1.87-1.25-3.74-2.49-5.61-3.74v-3.74l-11.22-9.36v-3.74q-2.805-1.86-5.61-3.74v-3.74c-1.25-.62-2.5-1.25-3.75-1.87-0.62-2.49-1.24-4.99-1.87-7.48-1.24-.62-2.49-1.25-3.74-1.87v-3.74h-1.87q-0.93-3.75-1.87-7.48h-1.87v-5.62h-1.87v-3.74h-1.87v-5.61h-1.87v-5.61h-1.87v-5.61H4646v-7.48c-4.17-12.8-8.03-35.29-3.74-50.51V4246.8h1.87q0.93-8.415,1.87-16.84h1.87v-5.61h1.87v-5.61h1.87v-5.61h1.87c0.62-2.5,1.25-4.99,1.87-7.48h1.87v-3.75h1.87v-3.74h1.87v-3.74h1.87v-3.74h1.87v-3.74c1.25-.62,2.5-1.25,3.74-1.87v-3.74c1.88-1.25,3.75-2.49,5.62-3.74v-3.74q2.8-1.875,5.61-3.74v-3.74q6.54-5.625,13.09-11.23,3.75-4.68,7.48-9.35h3.74l3.75-5.61h3.74c0.62-1.25,1.24-2.5,1.87-3.74h3.74c0.62-1.25,1.25-2.5,1.87-3.74h3.74c0.62-1.25,1.25-2.5,1.87-3.75,2.49-.62,4.99-1.24,7.48-1.87v-1.87q3.75-.93,7.48-1.87v-1.87h5.62v-1.87h3.74v-1.87h5.61v-1.87h5.61v-1.87h5.61v-1.87C4772.41,4109.88,4781.67,4112.42,4786.29,4108.38Zm-452.67,136.55c20.41-.24,42.92-0.95,57.99,3.74h9.35c57.47,19.5,93.01,52.67,115.97,106.62q0.945,6.54,1.87,13.09h1.87q0.945,8.415,1.87,16.84h1.87v14.96h1.88v24.32h-1.88v16.83q-4.665,16.83-9.35,33.67h-1.87v3.74h-1.87v5.61h-1.87v3.74h-1.87v3.75c-1.25.62-2.49,1.24-3.74,1.87q-1.875,5.61-3.74,11.22c-1.87,1.25-3.74,2.49-5.61,3.74v3.74c-1.25.62-2.5,1.25-3.74,1.87v3.74q-6.555,5.61-13.1,11.23-7.485,8.415-14.96,16.83h-3.74c-0.63,1.25-1.25,2.49-1.87,3.74-1.87.63-3.75,1.25-5.62,1.87v1.87h-3.74c-0.62,1.25-1.24,2.5-1.87,3.74-2.49.63-4.99,1.25-7.48,1.87-0.62,1.25-1.25,2.5-1.87,3.75h-3.74v1.87h-3.74v1.87h-5.61v1.87h-3.74v1.87q-16.845,4.665-33.67,9.35h-14.97v1.87h-26.19v-1.87h-14.96v-1.87h-9.35v-1.87h-7.48v-1.87h-7.49v-1.87h-5.61v-1.87h-5.61v-1.87q-5.61-1.875-11.22-3.74v-1.87h-3.74v-1.88q-5.61-1.86-11.23-3.74c-0.62-1.24-1.24-2.49-1.87-3.74h-3.74q-1.86-2.805-3.74-5.61h-3.74c-1.25-1.87-2.49-3.74-3.74-5.61h-3.74q-2.805-3.735-5.61-7.48-7.485-6.555-14.97-13.1v-3.74q-2.805-1.86-5.61-3.74v-3.74c-1.25-.62-2.49-1.25-3.74-1.87v-3.74c-1.25-.62-2.49-1.25-3.74-1.87v-3.74c-1.25-.63-2.5-1.25-3.74-1.87-0.63-2.5-1.25-4.99-1.87-7.49h-1.87q-1.875-5.61-3.74-11.22h-1.88v-5.61h-1.87v-5.61h-1.87v-5.61h-1.87v-5.61h-1.87v-9.36h-1.87c-2.04-6.66-4.41-51.1-1.87-59.85h1.87v-9.36h1.87v-7.48h1.87v-7.48h1.87v-5.61h1.87v-5.61h1.87v-3.74h1.88v-5.62h1.87v-3.74h1.87v-3.74c1.24-.62,2.49-1.25,3.74-1.87q1.86-5.61,3.74-11.22c1.25-.63,2.49-1.25,3.74-1.87v-3.74q2.805-1.875,5.61-3.74v-3.75q3.735-2.805,7.48-5.61v-3.74q5.61-4.68,11.23-9.35c0.62-1.25,1.24-2.49,1.87-3.74h3.74q2.805-3.75,5.61-7.48h3.74c1.25-1.87,2.49-3.74,3.74-5.62h3.74c0.63-1.24,1.25-2.49,1.87-3.74q5.61-1.86,11.23-3.74c0.62-1.24,1.24-2.49,1.87-3.74h3.74v-1.87h5.61v-1.87c2.49-.62,4.99-1.25,7.48-1.87v-1.87h5.61v-1.87h5.61v-1.87h7.49v-1.87C4320.84,4246.69,4329.54,4248.51,4333.62,4244.93ZM1804.68,4360.9c1.35,5.17.52,4.18,5.61,5.61v3.74c8.84,5.15,12.87,14.2,18.71,22.45q2.8,1.86,5.61,3.74v3.74c1.24,0.62,2.49,1.25,3.74,1.87v3.74c1.25,0.63,2.49,1.25,3.74,1.87,0.62,1.87,1.25,3.74,1.87,5.61h1.87q1.875,5.61,3.74,11.23c1.25,0.62,2.5,1.24,3.74,1.87v5.61h1.87v3.74h1.87l3.75,11.22h1.87v5.61h1.87v3.75h1.87q6.54,25.245,13.09,50.5v14.96c8.74,31.09-2.81,83.36-11.22,104.75q-1.875,8.415-3.74,16.84c-30.77,71.23-80.1,117.06-151.52,147.77h-5.61v1.87h-5.61v1.87h-5.61v1.87h-7.48v1.87h-7.48v1.87h-9.36v1.87h-11.22v1.87h-14.96v1.87c-8.52,2.38-40.74-.16-46.77-1.87h-14.96v-1.87h-11.22v-1.87h-9.36v-1.87h-7.48v-1.87h-5.61v-1.87h-5.61v-1.87h-5.61v-1.87h-5.62v-1.87q-5.61-.945-11.22-1.87v-1.87q-5.61-1.875-11.22-3.74v-1.87h-3.74v-1.88h-3.74v-1.87q-5.61-1.86-11.23-3.74c-0.62-1.24-1.24-2.49-1.87-3.74-2.49-.62-4.99-1.24-7.48-1.87-0.62-1.25-1.25-2.49-1.87-3.74h-3.74c-0.62-1.25-1.25-2.49-1.87-3.74h-3.74q-1.875-2.805-3.74-5.61h-3.74q-3.75-4.68-7.49-9.35h-3.74q-8.415-9.36-16.83-18.71-5.61-4.68-11.23-9.35v-3.74q-3.735-2.805-7.48-5.61-0.93-2.82-1.87-5.62c-1.25-.62-2.49-1.24-3.74-1.87v-3.74c-1.25-.62-2.49-1.25-3.74-1.87-0.62-1.87-1.25-3.74-1.87-5.61h-1.87v-3.74c-1.25-.62-2.5-1.25-3.74-1.87q-1.875-5.61-3.74-11.22c-1.25-.63-2.5-1.25-3.74-1.88q-8.43-20.565-16.84-41.15-1.875-9.345-3.74-18.7c-12.61-37.76-10.96-94.78,1.87-130.94v-7.48h1.87v-5.61h1.87v-5.61h1.87v-5.61h1.87v-5.62h1.87q1.875-5.61,3.74-11.22h1.87v-3.74h1.88v-3.74h1.87v-3.74h1.87v-3.74h1.87v-3.74h1.87v-3.75h1.87q0.93-2.8,1.87-5.61c1.25-.62,2.49-1.24,3.74-1.87,0.62-2.49,1.25-4.99,1.87-7.48,1.25-.62,2.49-1.25,3.74-1.87,0.62-1.87,1.25-3.74,1.87-5.61q2.8-1.875,5.61-3.74v-3.74q4.68-3.75,9.36-7.49v-3.74q7.47-6.54,14.96-13.09,2.8-3.735,5.61-7.48h3.74q3.75-4.68,7.48-9.36h3.75q1.86-2.805,3.74-5.61h3.74c0.62-1.24,1.24-2.49,1.87-3.74h3.74c1.25-1.87,2.49-3.74,3.74-5.61,2.49-.62,4.99-1.25,7.48-1.87,0.63-1.25,1.25-2.49,1.87-3.74h3.74v-1.87h3.74v-1.87h3.75v-1.87h3.74v-1.87h3.74v-1.87h3.74v-1.87l11.22-3.75v-1.87q26.19-7.47,52.38-14.96h13.09v-1.87h18.71v-1.87q24.3,0.93,48.63,1.87v1.87H1670v1.87q8.415,0.93,16.84,1.87v1.87q6.54,0.93,13.09,1.87v1.87q8.415,1.875,16.84,3.74v1.87h3.74v1.87c3.11,0.63,6.23,1.25,9.35,1.88v1.87q5.61,1.86,11.22,3.74v1.87q5.61,1.86,11.23,3.74c0.62,1.25,1.24,2.49,1.87,3.74,2.49,0.62,4.98,1.25,7.48,1.87v1.87c1.87,0.62,3.74,1.25,5.61,1.87,0.62,1.25,1.25,2.49,1.87,3.74h3.74q1.875,2.8,3.74,5.61h3.74q2.805,3.75,5.61,7.49h3.75v1.87C1794.51,4353.7,1797.92,4359.01,1804.68,4360.9Z" transform="translate(-123.781 -1780.31)"/>
</svg>
